<svg width="56" height="43" viewBox="0 0 56 43" fill="none" xmlns="http://www.w3.org/2000/svg">
<path d="M19.4121 30.9883H11.6777L9.33398 43H5.14453L7.48828 30.9883H0.486328V26.9746H8.25L10.2715 16.6035H2.71289V12.5312H11.0625L13.4648 0.34375H17.6543L15.252 12.5312H22.9863L25.3887 0.34375H29.6074L27.2051 12.5312H33.1816V16.6035H26.4141L24.3926 26.9746H30.9844V30.9883H23.6309L21.2871 43H17.0684L19.4121 30.9883ZM12.4395 26.9746H20.1738L22.1953 16.6035H14.4609L12.4395 26.9746ZM55.3301 43H49.8809V6.87695L38.9531 10.8906V5.96875L54.4805 0.138672H55.3301V43Z" fill="url(#paint0_linear)"/>
<defs>
<linearGradient id="paint0_linear" x1="-3" y1="-13" x2="68" y2="57" gradientUnits="userSpaceOnUse">
<stop stop-color="#F99272"/>
<stop offset="1" stop-color="#72B8F9"/>
</linearGradient>
</defs>
</svg>
