<svg width="175" height="58" viewBox="0 0 175 58" fill="none" xmlns="http://www.w3.org/2000/svg">
<path d="M20.5586 36.5918C20.5586 35.127 20.002 33.9941 18.8887 33.1934C17.7949 32.373 15.8711 31.6699 13.1172 31.084C10.3828 30.498 8.20508 29.7949 6.58398 28.9746C4.98242 28.1543 3.79102 27.1777 3.00977 26.0449C2.24805 24.9121 1.86719 23.5645 1.86719 22.002C1.86719 19.4043 2.96094 17.207 5.14844 15.4102C7.35547 13.6133 10.168 12.7148 13.5859 12.7148C17.1797 12.7148 20.0898 13.6426 22.3164 15.498C24.5625 17.3535 25.6855 19.7266 25.6855 22.6172H20.2363C20.2363 21.1328 19.6016 19.8535 18.332 18.7793C17.082 17.7051 15.5 17.168 13.5859 17.168C11.6133 17.168 10.0703 17.5977 8.95703 18.457C7.84375 19.3164 7.28711 20.4395 7.28711 21.8262C7.28711 23.1348 7.80469 24.1211 8.83984 24.7852C9.875 25.4492 11.7402 26.084 14.4355 26.6895C17.1504 27.2949 19.3477 28.0176 21.0273 28.8574C22.707 29.6973 23.9473 30.7129 24.748 31.9043C25.5684 33.0762 25.9785 34.5117 25.9785 36.2109C25.9785 39.043 24.8457 41.3184 22.5801 43.0371C20.3145 44.7363 17.375 45.5859 13.7617 45.5859C11.2227 45.5859 8.97656 45.1367 7.02344 44.2383C5.07031 43.3398 3.53711 42.0898 2.42383 40.4883C1.33008 38.8672 0.783203 37.1191 0.783203 35.2441H6.20312C6.30078 37.0605 7.02344 38.5059 8.37109 39.5801C9.73828 40.6348 11.5352 41.1621 13.7617 41.1621C15.8125 41.1621 17.4531 40.752 18.6836 39.9316C19.9336 39.0918 20.5586 37.9785 20.5586 36.5918ZM38.9277 45H33.5078V13.3008H38.9277V45ZM33.0684 4.89258C33.0684 4.01367 33.332 3.27148 33.8594 2.66602C34.4062 2.06055 35.207 1.75781 36.2617 1.75781C37.3164 1.75781 38.1172 2.06055 38.6641 2.66602C39.2109 3.27148 39.4844 4.01367 39.4844 4.89258C39.4844 5.77148 39.2109 6.50391 38.6641 7.08984C38.1172 7.67578 37.3164 7.96875 36.2617 7.96875C35.207 7.96875 34.4062 7.67578 33.8594 7.08984C33.332 6.50391 33.0684 5.77148 33.0684 4.89258ZM52.7266 13.3008L52.873 16.8164C55.1973 14.082 58.332 12.7148 62.2773 12.7148C66.7109 12.7148 69.7285 14.4141 71.3301 17.8125C72.3848 16.2891 73.752 15.0586 75.4316 14.1211C77.1309 13.1836 79.1328 12.7148 81.4375 12.7148C88.3906 12.7148 91.9258 16.3965 92.043 23.7598V45H86.623V24.082C86.623 21.8164 86.1055 20.127 85.0703 19.0137C84.0352 17.8809 82.2969 17.3145 79.8555 17.3145C77.8438 17.3145 76.1738 17.9199 74.8457 19.1309C73.5176 20.3223 72.7461 21.9336 72.5312 23.9648V45H67.082V24.2285C67.082 19.6191 64.8262 17.3145 60.3145 17.3145C56.7598 17.3145 54.3281 18.8281 53.0195 21.8555V45H47.5996V13.3008H52.7266ZM127.023 29.502C127.023 34.3262 125.92 38.2129 123.713 41.1621C121.506 44.1113 118.518 45.5859 114.748 45.5859C110.9 45.5859 107.873 44.3652 105.666 41.9238V57.1875H100.246V13.3008H105.197L105.461 16.8164C107.668 14.082 110.734 12.7148 114.66 12.7148C118.469 12.7148 121.477 14.1504 123.684 17.0215C125.91 19.8926 127.023 23.8867 127.023 29.0039V29.502ZM121.604 28.8867C121.604 25.3125 120.842 22.4902 119.318 20.4199C117.795 18.3496 115.705 17.3145 113.049 17.3145C109.768 17.3145 107.307 18.7695 105.666 21.6797V36.8262C107.287 39.7168 109.768 41.1621 113.107 41.1621C115.705 41.1621 117.766 40.1367 119.289 38.0859C120.832 36.0156 121.604 32.9492 121.604 28.8867ZM139.826 45H134.406V0H139.826V45ZM161.682 45.5859C157.385 45.5859 153.889 44.1797 151.193 41.3672C148.498 38.5352 147.15 34.7559 147.15 30.0293V29.0332C147.15 25.8887 147.746 23.0859 148.938 20.625C150.148 18.1445 151.828 16.2109 153.977 14.8242C156.145 13.418 158.488 12.7148 161.008 12.7148C165.129 12.7148 168.332 14.0723 170.617 16.7871C172.902 19.502 174.045 23.3887 174.045 28.4473V30.7031H152.57C152.648 33.8281 153.557 36.3574 155.295 38.291C157.053 40.2051 159.279 41.1621 161.975 41.1621C163.889 41.1621 165.51 40.7715 166.838 39.9902C168.166 39.209 169.328 38.1738 170.324 36.8848L173.635 39.4629C170.979 43.5449 166.994 45.5859 161.682 45.5859ZM161.008 17.168C158.82 17.168 156.984 17.9688 155.5 19.5703C154.016 21.1523 153.098 23.3789 152.746 26.25H168.625V25.8398C168.469 23.0859 167.727 20.957 166.398 19.4531C165.07 17.9297 163.273 17.168 161.008 17.168Z" fill="url(#paint0_linear)"/>
<defs>
<linearGradient id="paint0_linear" x1="-2" y1="-11" x2="30.2328" y2="123.277" gradientUnits="userSpaceOnUse">
<stop stop-color="#F99272"/>
<stop offset="1" stop-color="#72B8F9"/>
</linearGradient>
</defs>
</svg>
